<?xml version="1.0" encoding="utf-8"?>
<!-- Generator: Adobe Illustrator 23.1.0, SVG Export Plug-In . SVG Version: 6.00 Build 0)  -->
<svg version="1.1" id="Layer_1" xmlns="http://www.w3.org/2000/svg" xmlns:xlink="http://www.w3.org/1999/xlink" x="0px" y="0px"
	 viewBox="0 0 122 119" style="enable-background:new 0 0 122 119;" xml:space="preserve">
<style type="text/css">
	.st0{fill:url(#SVGID_1_);}
	.st1{fill:url(#SVGID_2_);}
	.st2{fill:url(#SVGID_3_);}
	.st3{fill:url(#SVGID_4_);}
</style>
<g>
	<g>
		<g>
			<linearGradient id="SVGID_1_" gradientUnits="userSpaceOnUse" x1="27.2918" y1="48.8594" x2="53.3743" y2="111.1457">
				<stop  offset="0" style="stop-color:#B096ED"/>
				<stop  offset="0.6935" style="stop-color:#E6DEF9"/>
				<stop  offset="1" style="stop-color:#FFFFFF"/>
			</linearGradient>
			<path class="st0" d="M40.28,84.72c-2.99,0-5.86-1.64-7.31-4.48L17.18,49.19c-2.05-4.03-0.44-8.96,3.59-11.01
				c4.03-2.05,8.96-0.44,11.01,3.59l15.79,31.05c2.05,4.03,0.44,8.96-3.59,11.01C42.8,84.44,41.53,84.72,40.28,84.72z"/>
		</g>
		<g>
			<linearGradient id="SVGID_2_" gradientUnits="userSpaceOnUse" x1="69.5637" y1="123.0355" x2="7.2776" y2="-8.5439">
				<stop  offset="0" style="stop-color:#FF3071"/>
				<stop  offset="1" style="stop-color:#FFD700"/>
			</linearGradient>
			<path class="st1" d="M8.43,118.79c-4.52,0-8.19-3.67-8.19-8.19c0-4.52,3.67-8.19,8.19-8.19c23.8,0,45.28-13.18,56.06-34.39
				l14.88-29.26c1.72-3.38,5.53-5.14,9.21-4.25c3.68,0.88,6.28,4.18,6.28,7.97v52.89c0,4.52-3.67,8.19-8.19,8.19
				s-8.19-3.67-8.19-8.19V76.62C64.7,102.66,37.98,118.79,8.43,118.79z"/>
		</g>
		<g>
			<linearGradient id="SVGID_3_" gradientUnits="userSpaceOnUse" x1="100.1221" y1="132.7204" x2="100.1221" y2="28.9057">
				<stop  offset="0" style="stop-color:#FF3071"/>
				<stop  offset="1" style="stop-color:#FFD700"/>
			</linearGradient>
			<path class="st2" d="M86.67,103.55c-1.25,0-2.52-0.29-3.71-0.89c-4.03-2.05-5.64-6.98-3.59-11.01l26.9-52.89
				c1.72-3.38,5.53-5.13,9.21-4.25c3.68,0.88,6.28,4.18,6.28,7.97v52.89c0,4.52-3.67,8.19-8.19,8.19c-4.52,0-8.19-3.67-8.19-8.19
				V76.64L93.97,99.07C92.53,101.92,89.65,103.55,86.67,103.55z"/>
		</g>
		<g>
			<linearGradient id="SVGID_4_" gradientUnits="userSpaceOnUse" x1="47.5508" y1="118.3167" x2="47.5508" y2="-1.794">
				<stop  offset="0" style="stop-color:#B096ED"/>
				<stop  offset="0.6935" style="stop-color:#E6DEF9"/>
				<stop  offset="1" style="stop-color:#FFFFFF"/>
			</linearGradient>
			<path class="st3" d="M8.43,84.72c-0.63,0-1.27-0.07-1.91-0.23c-3.68-0.88-6.28-4.18-6.28-7.97V23.64c0-4.52,3.67-8.19,8.19-8.19
				s8.19,3.67,8.19,8.19v18.74C30.4,16.34,57.12,0.21,86.67,0.21c4.52,0,8.19,3.67,8.19,8.19c0,4.52-3.67,8.19-8.19,8.19
				c-23.79,0-45.28,13.18-56.06,34.39L15.73,80.24C14.31,83.04,11.46,84.72,8.43,84.72z"/>
		</g>
	</g>
</g>
</svg>
